<svg xmlns="http://www.w3.org/2000/svg" version="1.2" viewBox="0 0 1440 473.00000000000006" width="1440" height="474"><style/><path fill-rule="evenodd" d="m431.7 13.4c1.1 21.1-28.9 11.1-37.2 22.9-9.9 73.7-5.7 200.8-5.7 300.2 0 32.6-6.6 79.1 2.9 97.2 8 15.2 33.3 9.8 40 22.8-4.6 23.8-49.2 14.3-77.2 14.3-30.5 0-66.8 6.1-80-8.5-2.7-23.7 33.4-8.5 37.1-25.8 6.7-123.9 1-260.1 2.9-388.8-53.1-11.2-136.7-5.8-194.4-2.9-4.8 124-4.8 267.8 0 391.7 6.6 18.5 38.8 1.2 37.1 22.9-1.4 19.2-43.2 11.4-77.1 11.4-35.3 0-73.3 4.9-80.1-8.5-0.3-22.2 32.8-11.1 40-25.8 5.1-79.1 2.9-196.4 2.9-291.6 0-34.8 7.3-74.7 0-97.2-6.9-21.3-37-15-40-34.3-0.5-3.3 0.6-5.1 2.8-5.7 79.6-10.2 229.8-5.7 331.7-5.7 33 0 71.7-9 94.3 11.4z" fill="#ff6600"/><path fill-rule="evenodd" d="m926.3 4.8c11.2 23.1 30.4 53.5 25.8 82.9-29 7.8-25.5-28.7-48.6-40-32.5-15.9-72.4 2-120.1-2.9-4.8 124-4.8 267.8 0 391.7 5.1 14.9 35.8 4.3 37.1 22.9-9.3 19.5-46.8 11.4-74.3 11.4-29.7 0-63 4.5-80-5.7-7.7-18.9 28-17.1 37.1-28.6 7.8-126.7-0.4-260.1 0-388.8-38.3-6-92.2-15.2-122.9 2.9-21.2 12.4-18.5 42.5-42.9 37.1-16.9-4.7 14.8-71.2 22.9-80 109.7-11.4 251.5-5.8 365.9-2.9z" fill="#ff6600"/><path fill-rule="evenodd" d="m1438.1 2c8.7 29.1-14.1 47.3-28.6 65.7-92.9 117.7-188.6 237.2-280.2 360.2 82.6 2.8 219.8 26.9 263-22.8 13.5-15.5 11-44.5 40.1-48.6 13 35.1-9.3 83.9-20 114.3-124-3.7-263 7.6-377.4-5.7 13.1-43.4 48.2-75 74.3-108.6 78.5-101 156.5-203.7 234.4-308.8-96.2 2.4-225.2-27.4-265.9 34.3-7.7 11.8-9.5 45.3-37.1 34.3-4.9-27 14.4-78.8 22.9-111.5 123.3-5.9 245.8-0.7 374.5-2.8z" fill="#ff6600"/></svg>